<svg width="24" height="24" viewBox="9 9 24 24" fill="none" xmlns="http://www.w3.org/2000/svg">
<path fill-rule="evenodd" clip-rule="evenodd" d="M16.5922 13.2302C15.7619 13.6883 14.8735 14.1785 13.9617 14.4694C13.4825 14.6223 13.1587 14.726 12.9286 14.8162C12.7771 14.8756 12.7112 14.9131 12.69 14.9255C12.6821 14.9415 12.6683 14.9744 12.6507 15.0362C12.6118 15.1723 12.5771 15.3602 12.5188 15.6832C11.3782 22.0093 13.8701 27.7009 19.6584 29.9171C20.3228 30.1714 20.541 30.25 21.0015 30.25C21.4619 30.25 21.6801 30.1714 22.3444 29.917C28.1321 27.701 30.6219 22.0095 29.4809 15.6832C29.4226 15.3602 29.3878 15.1722 29.349 15.0361C29.3313 14.9743 29.3175 14.9414 29.3096 14.9254C29.2884 14.913 29.2225 14.8755 29.0711 14.8161C28.841 14.726 28.5172 14.6223 28.038 14.4695C27.1258 14.1786 26.2369 13.6885 25.4061 13.2304C25.113 13.0687 24.827 12.9111 24.5499 12.7676C23.4376 12.1916 22.3248 11.75 20.9982 11.75C19.6717 11.75 18.5595 12.1916 17.448 12.7674C17.171 12.9109 16.8852 13.0686 16.5922 13.2302ZM29.3021 14.9125C29.3021 14.9124 29.3028 14.9132 29.3041 14.9153C29.3027 14.9136 29.302 14.9126 29.3021 14.9125ZM12.6975 14.9126C12.6976 14.9127 12.6969 14.9138 12.6955 14.9154C12.6968 14.9133 12.6975 14.9125 12.6975 14.9126ZM16.758 11.4355C17.9501 10.8179 19.3169 10.25 20.9982 10.25C22.6795 10.25 24.0469 10.818 25.2396 11.4355C25.5999 11.6221 25.9347 11.8067 26.2547 11.9831C27.0377 12.4148 27.7318 12.7974 28.4938 13.0404L28.5192 13.0486C28.9665 13.1912 29.3372 13.3094 29.6182 13.4195C29.8826 13.523 30.1969 13.665 30.4198 13.9128C30.6202 14.1354 30.7231 14.3853 30.7913 14.6243C30.8533 14.8413 30.9007 15.1045 30.9515 15.3863L30.9571 15.417C32.1953 22.2824 29.491 28.7869 22.8808 31.3179L22.8479 31.3305C22.1982 31.5793 21.7526 31.75 21.0015 31.75C20.2504 31.75 19.8048 31.5793 19.155 31.3305L19.1221 31.3179C12.5117 28.787 9.80467 22.2827 11.0426 15.417C11.0445 15.4068 11.0463 15.3966 11.0481 15.3864C11.0989 15.1046 11.1463 14.8415 11.2083 14.6245C11.2765 14.3855 11.3794 14.1356 11.5797 13.913C11.8026 13.6652 12.1169 13.5232 12.3813 13.4196C12.6622 13.3095 13.033 13.1912 13.4803 13.0485L13.5057 13.0404C14.2673 12.7974 14.9608 12.4149 15.7432 11.9832C16.063 11.8068 16.3977 11.6222 16.758 11.4355Z" fill="#0D783C"/>
<path opacity="0.4" d="M26.707 17.7498C26.8453 18.1403 26.6408 18.5689 26.2504 18.7072C25.6737 18.9114 25.0293 19.3416 24.3658 19.9235C23.7101 20.4985 23.0758 21.1859 22.5171 21.8556C21.9598 22.5236 21.4869 23.163 21.1532 23.6358C20.9866 23.8719 20.7222 24.2685 20.6331 24.4022C20.4882 24.6303 20.2315 24.763 19.9616 24.7492C19.6917 24.7354 19.4501 24.5774 19.3292 24.3356C18.8737 23.4246 18.4522 23.0364 18.209 22.8742C18.0867 22.7927 18.0013 22.7627 17.9658 22.7526C17.9592 22.7507 17.954 22.7494 17.9504 22.7486C17.5593 22.7231 17.25 22.3977 17.25 22.0002C17.25 21.586 17.5888 21.2502 18.003 21.2502C18.5474 21.2502 18.7883 21.4577 19.041 21.6262C19.3544 21.8351 19.6952 22.1487 20.0384 22.6151C20.3794 22.1384 20.8351 21.5303 21.3653 20.8948C21.9536 20.1895 22.6428 19.4394 23.3768 18.7957C24.103 18.1588 24.9146 17.589 25.7496 17.2932C26.1401 17.1549 26.5687 17.3594 26.707 17.7498Z" fill="#0D783C"/>
</svg>
